<svg xmlns="http://www.w3.org/2000/svg" viewBox="0 0 1200 800" font-family="Arial, sans-serif">
  <defs>
    <marker id="arrow" viewBox="0 0 10 10" refX="9" refY="5" 
      markerWidth="6" markerHeight="6" orient="auto">
      <path d="M 0 0 L 10 5 L 0 10 z" fill="black"/>
    </marker>
  </defs>
  
  <!-- p2p_chat_gui.py -->
  <rect x="20" y="20" width="300" height="130" fill="#a8d5ba" stroke="black" stroke-width="2" rx="5" ry="5"/>
  <text x="170" y="45" text-anchor="middle" font-weight="bold" font-size="16">P2PChatGUI</text>
  <line x1="20" y1="55" x2="320" y2="55" stroke="black" stroke-width="1"/>
  <text x="30" y="75" font-size="14">- peer_client: PeerClient</text>
  <text x="30" y="95" font-size="14">- root: Tk</text>
  <text x="30" y="115" font-size="14">- logger: Logger</text>
  <line x1="20" y1="125" x2="320" y2="125" stroke="black" stroke-width="1"/>
  <text x="30" y="145" font-size="14">+ setup_ui(), login(), send_message(), ...</text>
  
  <!-- p2p_chat_peer.py (Message) -->
  <rect x="450" y="20" width="300" height="120" fill="#f5cea6" stroke="black" stroke-width="2" rx="5" ry="5"/>
  <text x="600" y="45" text-anchor="middle" font-weight="bold" font-size="16">Message</text>
  <line x1="450" y1="55" x2="750" y2="55" stroke="black" stroke-width="1"/>
  <text x="460" y="75" font-size="14">- id: String</text>
  <text x="460" y="95" font-size="14">- channel: String</text>
  <text x="460" y="115" font-size="14">- sender: String</text>
  <line x1="450" y1="125" x2="750" y2="125" stroke="black" stroke-width="1"/>
  <text x="460" y="145" font-size="14">+ format(), to_network_format()</text>
  
  <!-- p2p_chat_peer.py (Channel) -->
  <rect x="450" y="170" width="300" height="110" fill="#f5cea6" stroke="black" stroke-width="2" rx="5" ry="5"/>
  <text x="600" y="195" text-anchor="middle" font-weight="bold" font-size="16">Channel</text>
  <line x1="450" y1="205" x2="750" y2="205" stroke="black" stroke-width="1"/>
  <text x="460" y="225" font-size="14">- name: String</text>
  <text x="460" y="245" font-size="14">- messages: List[Message]</text>
  <text x="460" y="265" font-size="14">- message_ids: Set[String]</text>
  <line x1="450" y1="275" x2="750" y2="275" stroke="black" stroke-width="1"/>
  <text x="460" y="295" font-size="14">+ add_message(message: Message)</text>
  
  <!-- p2p_chat_peer.py (TrackerConnection) -->
  <rect x="450" y="310" width="300" height="150" fill="#f5cea6" stroke="black" stroke-width="2" rx="5" ry="5"/>
  <text x="600" y="335" text-anchor="middle" font-weight="bold" font-size="16">TrackerConnection</text>
  <line x1="450" y1="345" x2="750" y2="345" stroke="black" stroke-width="1"/>
  <text x="460" y="365" font-size="14">- username: String</text>
  <text x="460" y="385" font-size="14">- password: String</text>
  <text x="460" y="405" font-size="14">- tracker_ip: String</text>
  <text x="460" y="425" font-size="14">- session_id: String</text>
  <line x1="450" y1="435" x2="750" y2="435" stroke="black" stroke-width="1"/>
  <text x="460" y="455" font-size="14">+ connect(), login(), get_peers()</text>
  <text x="460" y="475" font-size="14">+ join_channel(), list_channels()</text>
  
  <!-- p2p_chat_peer.py (PeerServer) -->
  <rect x="450" y="490" width="300" height="130" fill="#f5cea6" stroke="black" stroke-width="2" rx="5" ry="5"/>
  <text x="600" y="515" text-anchor="middle" font-weight="bold" font-size="16">PeerServer</text>
  <line x1="450" y1="525" x2="750" y2="525" stroke="black" stroke-width="1"/>
  <text x="460" y="545" font-size="14">- local_port: int</text>
  <text x="460" y="565" font-size="14">- server_socket: Socket</text>
  <text x="460" y="585" font-size="14">- message_callback: Function</text>
  <line x1="450" y1="595" x2="750" y2="595" stroke="black" stroke-width="1"/>
  <text x="460" y="615" font-size="14">+ start(), _run_server()</text>
  <text x="460" y="635" font-size="14">+ _handle_connection(), stop()</text>
  
  <!-- p2p_chat_peer.py (PeerClient) -->
  <rect x="20" y="180" width="300" height="170" fill="#f5cea6" stroke="black" stroke-width="2" rx="5" ry="5"/>
  <text x="170" y="205" text-anchor="middle" font-weight="bold" font-size="16">PeerClient</text>
  <line x1="20" y1="215" x2="320" y2="215" stroke="black" stroke-width="1"/>
  <text x="30" y="235" font-size="14">- username: String</text>
  <text x="30" y="255" font-size="14">- channels: Dict[String, Channel]</text>
  <text x="30" y="275" font-size="14">- tracker_conn: TrackerConnection</text>
  <text x="30" y="295" font-size="14">- peer_server: PeerServer</text>
  <text x="30" y="315" font-size="14">- message_handler: Function</text>
  <line x1="20" y1="325" x2="320" y2="325" stroke="black" stroke-width="1"/>
  <text x="30" y="345" font-size="14">+ start(), stop(), join_channel()</text>
  <text x="30" y="365" font-size="14">+ send_message(), switch_channel()</text>
  
  <!-- tracker.py (TrackerServer) -->
  <rect x="850" y="20" width="300" height="160" fill="#c6c9ef" stroke="black" stroke-width="2" rx="5" ry="5"/>
  <text x="1000" y="45" text-anchor="middle" font-weight="bold" font-size="16">TrackerServer</text>
  <line x1="850" y1="55" x2="1150" y2="55" stroke="black" stroke-width="1"/>
  <text x="860" y="75" font-size="14">- host: String</text>
  <text x="860" y="95" font-size="14">- port: int</text>
  <text x="860" y="115" font-size="14">- peers: List[Tuple]</text>
  <text x="860" y="135" font-size="14">- users: Dict[String, String]</text>
  <line x1="850" y1="145" x2="1150" y2="145" stroke="black" stroke-width="1"/>
  <text x="860" y="165" font-size="14">+ start(), register_peer()</text>
  <text x="860" y="185" font-size="14">+ get_peers(), join_channel()</text>
  
  <!-- tracker.py (ClientHandler) -->
  <rect x="850" y="210" width="300" height="130" fill="#c6c9ef" stroke="black" stroke-width="2" rx="5" ry="5"/>
  <text x="1000" y="235" text-anchor="middle" font-weight="bold" font-size="16">ClientHandler</text>
  <line x1="850" y1="245" x2="1150" y2="245" stroke="black" stroke-width="1"/>
  <text x="860" y="265" font-size="14">- conn: Socket</text>
  <text x="860" y="285" font-size="14">- addr: Tuple[String, int]</text>
  <text x="860" y="305" font-size="14">- tracker: TrackerServer</text>
  <line x1="850" y1="315" x2="1150" y2="315" stroke="black" stroke-width="1"/>
  <text x="860" y="335" font-size="14">+ run()</text>
  
  <!-- File boundaries -->
  <rect x="10" y="10" width="320" height="350" fill="none" stroke="#888" stroke-width="1" stroke-dasharray="5,5"/>
  <text x="20" y="770" font-size="12" fill="#888">p2p_chat_gui.py</text>
  
  <rect x="440" y="10" width="320" height="620" fill="none" stroke="#888" stroke-width="1" stroke-dasharray="5,5"/>
  <text x="450" y="770" font-size="12" fill="#888">p2p_chat_peer.py</text>
  
  <rect x="840" y="10" width="320" height="340" fill="none" stroke="#888" stroke-width="1" stroke-dasharray="5,5"/>
  <text x="850" y="770" font-size="12" fill="#888">tracker.py</text>
  
  <!-- Relationships -->
  <!-- P2PChatGUI uses PeerClient -->
  <line x1="170" y1="150" x2="170" y2="180" stroke="black" stroke-width="1.5" marker-end="url(#arrow)"/>
  <text x="180" y="170" font-size="12">uses</text>
  
  <!-- PeerClient uses TrackerConnection -->
  <line x1="320" y1="275" x2="450" y2="385" stroke="black" stroke-width="1.5" marker-end="url(#arrow)"/>
  <text x="370" y="320" font-size="12">uses</text>
  
  <!-- PeerClient uses PeerServer -->
  <line x1="320" y1="295" x2="450" y2="535" stroke="black" stroke-width="1.5" marker-end="url(#arrow)"/>
  <text x="370" y="420" font-size="12">uses</text>
  
  <!-- PeerClient contains Channels -->
  <line x1="320" y1="255" x2="450" y2="230" stroke="black" stroke-width="1.5" marker-end="url(#arrow)"/>
  <text x="370" y="230" font-size="12">contains</text>
  
  <!-- Channels contain Messages -->
  <line x1="600" y1="170" x2="600" y2="140" stroke="black" stroke-width="1.5" marker-end="url(#arrow)"/>
  <text x="610" y="160" font-size="12">contains</text>
  
  <!-- TrackerConnection communicates with TrackerServer -->
  <line x1="750" y1="385" x2="850" y2="100" stroke="black" stroke-width="1.5" marker-end="url(#arrow)" stroke-dasharray="5,5"/>
  <text x="780" y="220" font-size="12">network</text>
  <text x="780" y="240" font-size="12">communication</text>
  
  <!-- TrackerServer creates ClientHandler -->
  <line x1="1000" y1="180" x2="1000" y2="210" stroke="black" stroke-width="1.5" marker-end="url(#arrow)"/>
  <text x="1010" y="200" font-size="12">creates</text>
  
  <!-- ClientHandler uses TrackerServer -->
  <line x1="930" y1="210" x2="930" y2="180" stroke="black" stroke-width="1.5" marker-end="url(#arrow)"/>
  <text x="895" y="200" font-size="12">uses</text>
  
  <!-- PeerServer communicates with PeerServer -->
  <line x1="450" y1="550" x2="400" y2="550" stroke="black" stroke-width="1.5" marker-end="url(#arrow)" stroke-dasharray="5,5"/>
  <path d="M 400 550 C 350 550 350 650 400 650 L 800 650 C 850 650 850 550 800 550" fill="none" stroke="black" stroke-width="1.5" stroke-dasharray="5,5"/>
  <line x1="800" y1="550" x2="750" y2="550" stroke="black" stroke-width="1.5" marker-end="url(#arrow)" stroke-dasharray="5,5"/>
  <text x="600" y="670" font-size="12">P2P communication between peers</text>
  
  <!-- Legend -->
  <rect x="20" y="700" width="20" height="20" fill="#a8d5ba" stroke="black"/>
  <text x="50" y="715" font-size="14">GUI Classes</text>
  
  <rect x="200" y="700" width="20" height="20" fill="#f5cea6" stroke="black"/>
  <text x="230" y="715" font-size="14">P2P Client Classes</text>
  
  <rect x="400" y="700" width="20" height="20" fill="#c6c9ef" stroke="black"/>
  <text x="430" y="715" font-size="14">Tracker Server Classes</text>
  
  <line x1="600" y1="705" x2="650" y2="705" stroke="black" stroke-width="1.5" marker-end="url(#arrow)"/>
  <text x="660" y="710" font-size="14">Uses/Contains</text>
  
  <line x1="600" y1="730" x2="650" y2="730" stroke="black" stroke-width="1.5" marker-end="url(#arrow)" stroke-dasharray="5,5"/>
  <text x="660" y="735" font-size="14">Network Communication</text>
</svg>
